<svg width="1400" height="980" viewBox="0 0 1400 980" fill="none" xmlns="http://www.w3.org/2000/svg">
<g id="eyes_two_layers" filter="url(#filter0_ddddd)">
<g id="Group">
<g id="level3Aleft">
<path id="Vector" d="M744 420H764C764 367 807.1 324 860 324V304C796 304 744 356 744 420Z" stroke="#40EA24" stroke-miterlimit="10"/>
</g>
<g id="level4left">
<path id="Vector_2" d="M860.5 550.2C932.131 550.2 990.2 492.131 990.2 420.5C990.2 348.869 932.131 290.8 860.5 290.8C788.869 290.8 730.8 348.869 730.8 420.5C730.8 492.131 788.869 550.2 860.5 550.2Z" stroke="#0071BC" stroke-miterlimit="10"/>
</g>
<g id="level3left">
<path id="Vector_3" d="M860.5 526.5C919.042 526.5 966.5 479.042 966.5 420.5C966.5 361.958 919.042 314.5 860.5 314.5C801.958 314.5 754.5 361.958 754.5 420.5C754.5 479.042 801.958 526.5 860.5 526.5Z" stroke="#0071BC" stroke-miterlimit="10"/>
</g>
<g id="level2left">
<path id="Vector_4" d="M860.5 493.5C900.817 493.5 933.5 460.817 933.5 420.5C933.5 380.183 900.817 347.5 860.5 347.5C820.183 347.5 787.5 380.183 787.5 420.5C787.5 460.817 820.183 493.5 860.5 493.5Z" stroke="#0071BC" stroke-width="6" stroke-miterlimit="10"/>
</g>
<g id="level5left">
<path id="Vector_5" d="M789.4 294.7C745.6 319.6 716 366.6 716 420.5C716 474.6 745.9 521.8 790 546.6" stroke="#40EA24" stroke-width="6" stroke-miterlimit="10"/>
<path id="Vector_6" d="M976 333.7C949.6 298.7 907.7 276 860.5 276" stroke="#40EA24" stroke-width="6" stroke-miterlimit="10"/>
<path id="Vector_7" d="M860.5 565.1C940.2 565.1 1005 500.3 1005 420.6" stroke="#40EA24" stroke-width="6" stroke-miterlimit="10"/>
</g>
<g id="level1left">
<g id="Group_2">
<path id="Vector_8" d="M860.5 363.7V376.9" stroke="#40EA24" stroke-miterlimit="10"/>
<path id="Vector_9" d="M860.5 464.2V477.3" stroke="#40EA24" stroke-miterlimit="10"/>
</g>
<g id="Group_3">
<path id="Vector_10" d="M855.5 364L856.7 377.1" stroke="#40EA24" stroke-miterlimit="10"/>
<path id="Vector_11" d="M864.3 464L865.4 477.1" stroke="#40EA24" stroke-miterlimit="10"/>
</g>
<g id="Group_4">
<path id="Vector_12" d="M850.6 364.6L852.9 377.6" stroke="#40EA24" stroke-miterlimit="10"/>
<path id="Vector_13" d="M868.1 463.5L870.4 476.5" stroke="#40EA24" stroke-miterlimit="10"/>
</g>
<g id="Group_5">
<path id="Vector_14" d="M845.8 365.7L849.2 378.4" stroke="#40EA24" stroke-miterlimit="10"/>
<path id="Vector_15" d="M871.8 462.7L875.2 475.4" stroke="#40EA24" stroke-miterlimit="10"/>
</g>
<g id="Group_6">
<path id="Vector_16" d="M841.1 367.2L845.6 379.5" stroke="#40EA24" stroke-miterlimit="10"/>
<path id="Vector_17" d="M875.4 461.5L879.9 473.9" stroke="#40EA24" stroke-miterlimit="10"/>
</g>
<g id="Group_7">
<path id="Vector_18" d="M836.5 369.1L842.1 381" stroke="#40EA24" stroke-miterlimit="10"/>
<path id="Vector_19" d="M878.9 460.1L884.5 472" stroke="#40EA24" stroke-miterlimit="10"/>
</g>
<g id="Group_8">
<path id="Vector_20" d="M832.1 371.3L838.7 382.8" stroke="#40EA24" stroke-miterlimit="10"/>
<path id="Vector_21" d="M882.3 458.3L888.9 469.7" stroke="#40EA24" stroke-miterlimit="10"/>
</g>
<g id="Group_9">
<path id="Vector_22" d="M827.9 374L835.5 384.8" stroke="#40EA24" stroke-miterlimit="10"/>
<path id="Vector_23" d="M885.5 456.3L893.1 467.1" stroke="#40EA24" stroke-miterlimit="10"/>
</g>
<g id="Group_10">
<path id="Vector_24" d="M824 377L832.5 387.1" stroke="#40EA24" stroke-miterlimit="10"/>
<path id="Vector_25" d="M888.5 453.9L897 464" stroke="#40EA24" stroke-miterlimit="10"/>
</g>
<g id="Group_11">
<path id="Vector_26" d="M820.3 380.4L829.7 389.7" stroke="#40EA24" stroke-miterlimit="10"/>
<path id="Vector_27" d="M891.3 451.4L900.7 460.7" stroke="#40EA24" stroke-miterlimit="10"/>
</g>
<g id="Group_12">
<path id="Vector_28" d="M817 384L827.1 392.5" stroke="#40EA24" stroke-miterlimit="10"/>
<path id="Vector_29" d="M893.9 448.6L904 457" stroke="#40EA24" stroke-miterlimit="10"/>
</g>
<g id="Group_13">
<path id="Vector_30" d="M814 388L824.8 395.5" stroke="#40EA24" stroke-miterlimit="10"/>
<path id="Vector_31" d="M896.2 445.6L907 453.1" stroke="#40EA24" stroke-miterlimit="10"/>
</g>
<g id="Group_14">
<path id="Vector_32" d="M811.3 392.1L822.7 398.7" stroke="#40EA24" stroke-miterlimit="10"/>
<path id="Vector_33" d="M898.3 442.3L909.7 448.9" stroke="#40EA24" stroke-miterlimit="10"/>
</g>
<g id="Group_15">
<path id="Vector_34" d="M809 396.5L821 402.1" stroke="#40EA24" stroke-miterlimit="10"/>
<path id="Vector_35" d="M900 439L912 444.5" stroke="#40EA24" stroke-miterlimit="10"/>
</g>
<g id="Group_16">
<path id="Vector_36" d="M807.1 401.1L819.5 405.6" stroke="#40EA24" stroke-miterlimit="10"/>
<path id="Vector_37" d="M901.5 435.5L913.9 440" stroke="#40EA24" stroke-miterlimit="10"/>
</g>
<g id="Group_17">
<path id="Vector_38" d="M805.6 405.8L818.4 409.2" stroke="#40EA24" stroke-miterlimit="10"/>
<path id="Vector_39" d="M902.6 431.8L915.4 435.2" stroke="#40EA24" stroke-miterlimit="10"/>
</g>
<g id="Group_18">
<path id="Vector_40" d="M804.6 410.7L817.5 413" stroke="#40EA24" stroke-miterlimit="10"/>
<path id="Vector_41" d="M903.5 428.1L916.4 430.4" stroke="#40EA24" stroke-miterlimit="10"/>
</g>
<g id="Group_19">
<path id="Vector_42" d="M803.9 415.6L817 416.7" stroke="#40EA24" stroke-miterlimit="10"/>
<path id="Vector_43" d="M904 424.3L917.1 425.5" stroke="#40EA24" stroke-miterlimit="10"/>
</g>
<g id="Group_20">
<path id="Vector_44" d="M803.7 420.5H816.9" stroke="#40EA24" stroke-miterlimit="10"/>
<path id="Vector_45" d="M904.1 420.5H917.3" stroke="#40EA24" stroke-miterlimit="10"/>
</g>
<g id="Group_21">
<path id="Vector_46" d="M803.9 425.5L817 424.3" stroke="#40EA24" stroke-miterlimit="10"/>
<path id="Vector_47" d="M904 416.7L917.1 415.6" stroke="#40EA24" stroke-miterlimit="10"/>
</g>
<g id="Group_22">
<path id="Vector_48" d="M804.6 430.4L817.5 428.1" stroke="#40EA24" stroke-miterlimit="10"/>
<path id="Vector_49" d="M903.5 413L916.4 410.7" stroke="#40EA24" stroke-miterlimit="10"/>
</g>
<g id="Group_23">
<path id="Vector_50" d="M805.6 435.2L818.4 431.8" stroke="#40EA24" stroke-miterlimit="10"/>
<path id="Vector_51" d="M902.6 409.2L915.4 405.8" stroke="#40EA24" stroke-miterlimit="10"/>
</g>
<g id="Group_24">
<path id="Vector_52" d="M807.1 440L819.5 435.5" stroke="#40EA24" stroke-miterlimit="10"/>
<path id="Vector_53" d="M901.5 405.6L913.9 401.1" stroke="#40EA24" stroke-miterlimit="10"/>
</g>
<g id="Group_25">
<path id="Vector_54" d="M809 444.5L821 439" stroke="#40EA24" stroke-miterlimit="10"/>
<path id="Vector_55" d="M900 402.1L912 396.5" stroke="#40EA24" stroke-miterlimit="10"/>
</g>
<g id="Group_26">
<path id="Vector_56" d="M811.3 448.9L822.7 442.3" stroke="#40EA24" stroke-miterlimit="10"/>
<path id="Vector_57" d="M898.3 398.7L909.7 392.1" stroke="#40EA24" stroke-miterlimit="10"/>
</g>
<g id="Group_27">
<path id="Vector_58" d="M814 453.1L824.8 445.6" stroke="#40EA24" stroke-miterlimit="10"/>
<path id="Vector_59" d="M896.2 395.5L907 388" stroke="#40EA24" stroke-miterlimit="10"/>
</g>
<g id="Group_28">
<path id="Vector_60" d="M817 457L827.1 448.6" stroke="#40EA24" stroke-miterlimit="10"/>
<path id="Vector_61" d="M893.9 392.5L904 384" stroke="#40EA24" stroke-miterlimit="10"/>
</g>
<g id="Group_29">
<path id="Vector_62" d="M820.3 460.7L829.7 451.4" stroke="#40EA24" stroke-miterlimit="10"/>
<path id="Vector_63" d="M891.3 389.7L900.7 380.4" stroke="#40EA24" stroke-miterlimit="10"/>
</g>
<g id="Group_30">
<path id="Vector_64" d="M824 464L832.5 453.9" stroke="#40EA24" stroke-miterlimit="10"/>
<path id="Vector_65" d="M888.5 387.1L897 377" stroke="#40EA24" stroke-miterlimit="10"/>
</g>
<g id="Group_31">
<path id="Vector_66" d="M827.9 467.1L835.5 456.3" stroke="#40EA24" stroke-miterlimit="10"/>
<path id="Vector_67" d="M885.5 384.8L893.1 374" stroke="#40EA24" stroke-miterlimit="10"/>
</g>
<g id="Group_32">
<path id="Vector_68" d="M832.1 469.7L838.7 458.3" stroke="#40EA24" stroke-miterlimit="10"/>
<path id="Vector_69" d="M882.3 382.8L888.9 371.3" stroke="#40EA24" stroke-miterlimit="10"/>
</g>
<g id="Group_33">
<path id="Vector_70" d="M836.5 472L842.1 460.1" stroke="#40EA24" stroke-miterlimit="10"/>
<path id="Vector_71" d="M878.9 381L884.5 369.1" stroke="#40EA24" stroke-miterlimit="10"/>
</g>
<g id="Group_34">
<path id="Vector_72" d="M841.1 473.9L845.6 461.5" stroke="#40EA24" stroke-miterlimit="10"/>
<path id="Vector_73" d="M875.4 379.5L879.9 367.2" stroke="#40EA24" stroke-miterlimit="10"/>
</g>
<g id="Group_35">
<path id="Vector_74" d="M845.8 475.4L849.2 462.7" stroke="#40EA24" stroke-miterlimit="10"/>
<path id="Vector_75" d="M871.8 378.4L875.2 365.7" stroke="#40EA24" stroke-miterlimit="10"/>
</g>
<g id="Group_36">
<path id="Vector_76" d="M850.6 476.5L852.9 463.5" stroke="#40EA24" stroke-miterlimit="10"/>
<path id="Vector_77" d="M868.1 377.6L870.4 364.6" stroke="#40EA24" stroke-miterlimit="10"/>
</g>
<g id="Group_37">
<path id="Vector_78" d="M855.5 477.1L856.7 464" stroke="#40EA24" stroke-miterlimit="10"/>
<path id="Vector_79" d="M864.3 377.1L865.4 364" stroke="#40EA24" stroke-miterlimit="10"/>
</g>
</g>
</g>
<g id="Group_38">
<g id="level3Aleft_2">
<path id="Vector_80" d="M744 420H764C764 367 807.1 324 860 324V304C796 304 744 356 744 420Z" stroke="#F7941E" stroke-miterlimit="10"/>
</g>
<g id="level4left_2">
<path id="Vector_81" d="M860.5 550.2C932.131 550.2 990.2 492.131 990.2 420.5C990.2 348.869 932.131 290.8 860.5 290.8C788.869 290.8 730.8 348.869 730.8 420.5C730.8 492.131 788.869 550.2 860.5 550.2Z" stroke="#0071BC" stroke-miterlimit="10"/>
</g>
<g id="level3left_2">
<path id="Vector_82" d="M860.5 526.5C919.042 526.5 966.5 479.042 966.5 420.5C966.5 361.958 919.042 314.5 860.5 314.5C801.958 314.5 754.5 361.958 754.5 420.5C754.5 479.042 801.958 526.5 860.5 526.5Z" stroke="#0071BC" stroke-miterlimit="10"/>
</g>
<g id="level2left_2">
<path id="Vector_83" d="M860.5 493.5C900.817 493.5 933.5 460.817 933.5 420.5C933.5 380.183 900.817 347.5 860.5 347.5C820.183 347.5 787.5 380.183 787.5 420.5C787.5 460.817 820.183 493.5 860.5 493.5Z" stroke="#0071BC" stroke-width="6" stroke-miterlimit="10"/>
</g>
<g id="level5left_2">
<path id="Vector_84" d="M789.4 294.7C745.6 319.6 716 366.6 716 420.5C716 474.6 745.9 521.8 790 546.6" stroke="#F7941E" stroke-width="6" stroke-miterlimit="10"/>
<path id="Vector_85" d="M976 333.7C949.6 298.7 907.7 276 860.5 276" stroke="#F7941E" stroke-width="6" stroke-miterlimit="10"/>
<path id="Vector_86" d="M860.5 565.1C940.2 565.1 1005 500.3 1005 420.6" stroke="#F7941E" stroke-width="6" stroke-miterlimit="10"/>
</g>
<g id="level1left_2">
<g id="Group_39">
<path id="Vector_87" d="M860.5 363.7V376.9" stroke="#F7941E" stroke-miterlimit="10"/>
<path id="Vector_88" d="M860.5 464.2V477.3" stroke="#F7941E" stroke-miterlimit="10"/>
</g>
<g id="Group_40">
<path id="Vector_89" d="M855.5 364L856.7 377.1" stroke="#F7941E" stroke-miterlimit="10"/>
<path id="Vector_90" d="M864.3 464L865.4 477.1" stroke="#F7941E" stroke-miterlimit="10"/>
</g>
<g id="Group_41">
<path id="Vector_91" d="M850.6 364.6L852.9 377.6" stroke="#F7941E" stroke-miterlimit="10"/>
<path id="Vector_92" d="M868.1 463.5L870.4 476.5" stroke="#F7941E" stroke-miterlimit="10"/>
</g>
<g id="Group_42">
<path id="Vector_93" d="M845.8 365.7L849.2 378.4" stroke="#F7941E" stroke-miterlimit="10"/>
<path id="Vector_94" d="M871.8 462.7L875.2 475.4" stroke="#F7941E" stroke-miterlimit="10"/>
</g>
<g id="Group_43">
<path id="Vector_95" d="M841.1 367.2L845.6 379.5" stroke="#F7941E" stroke-miterlimit="10"/>
<path id="Vector_96" d="M875.4 461.5L879.9 473.9" stroke="#F7941E" stroke-miterlimit="10"/>
</g>
<g id="Group_44">
<path id="Vector_97" d="M836.5 369.1L842.1 381" stroke="#F7941E" stroke-miterlimit="10"/>
<path id="Vector_98" d="M878.9 460.1L884.5 472" stroke="#F7941E" stroke-miterlimit="10"/>
</g>
<g id="Group_45">
<path id="Vector_99" d="M832.1 371.3L838.7 382.8" stroke="#F7941E" stroke-miterlimit="10"/>
<path id="Vector_100" d="M882.3 458.3L888.9 469.7" stroke="#F7941E" stroke-miterlimit="10"/>
</g>
<g id="Group_46">
<path id="Vector_101" d="M827.9 374L835.5 384.8" stroke="#F7941E" stroke-miterlimit="10"/>
<path id="Vector_102" d="M885.5 456.3L893.1 467.1" stroke="#F7941E" stroke-miterlimit="10"/>
</g>
<g id="Group_47">
<path id="Vector_103" d="M824 377L832.5 387.1" stroke="#F7941E" stroke-miterlimit="10"/>
<path id="Vector_104" d="M888.5 453.9L897 464" stroke="#F7941E" stroke-miterlimit="10"/>
</g>
<g id="Group_48">
<path id="Vector_105" d="M820.3 380.4L829.7 389.7" stroke="#F7941E" stroke-miterlimit="10"/>
<path id="Vector_106" d="M891.3 451.4L900.7 460.7" stroke="#F7941E" stroke-miterlimit="10"/>
</g>
<g id="Group_49">
<path id="Vector_107" d="M817 384L827.1 392.5" stroke="#F7941E" stroke-miterlimit="10"/>
<path id="Vector_108" d="M893.9 448.6L904 457" stroke="#F7941E" stroke-miterlimit="10"/>
</g>
<g id="Group_50">
<path id="Vector_109" d="M814 388L824.8 395.5" stroke="#F7941E" stroke-miterlimit="10"/>
<path id="Vector_110" d="M896.2 445.6L907 453.1" stroke="#F7941E" stroke-miterlimit="10"/>
</g>
<g id="Group_51">
<path id="Vector_111" d="M811.3 392.1L822.7 398.7" stroke="#F7941E" stroke-miterlimit="10"/>
<path id="Vector_112" d="M898.3 442.3L909.7 448.9" stroke="#F7941E" stroke-miterlimit="10"/>
</g>
<g id="Group_52">
<path id="Vector_113" d="M809 396.5L821 402.1" stroke="#F7941E" stroke-miterlimit="10"/>
<path id="Vector_114" d="M900 439L912 444.5" stroke="#F7941E" stroke-miterlimit="10"/>
</g>
<g id="Group_53">
<path id="Vector_115" d="M807.1 401.1L819.5 405.6" stroke="#F7941E" stroke-miterlimit="10"/>
<path id="Vector_116" d="M901.5 435.5L913.9 440" stroke="#F7941E" stroke-miterlimit="10"/>
</g>
<g id="Group_54">
<path id="Vector_117" d="M805.6 405.8L818.4 409.2" stroke="#F7941E" stroke-miterlimit="10"/>
<path id="Vector_118" d="M902.6 431.8L915.4 435.2" stroke="#F7941E" stroke-miterlimit="10"/>
</g>
<g id="Group_55">
<path id="Vector_119" d="M804.6 410.7L817.5 413" stroke="#F7941E" stroke-miterlimit="10"/>
<path id="Vector_120" d="M903.5 428.1L916.4 430.4" stroke="#F7941E" stroke-miterlimit="10"/>
</g>
<g id="Group_56">
<path id="Vector_121" d="M803.9 415.6L817 416.7" stroke="#F7941E" stroke-miterlimit="10"/>
<path id="Vector_122" d="M904 424.3L917.1 425.5" stroke="#F7941E" stroke-miterlimit="10"/>
</g>
<g id="Group_57">
<path id="Vector_123" d="M803.7 420.5H816.9" stroke="#F7941E" stroke-miterlimit="10"/>
<path id="Vector_124" d="M904.1 420.5H917.3" stroke="#F7941E" stroke-miterlimit="10"/>
</g>
<g id="Group_58">
<path id="Vector_125" d="M803.9 425.5L817 424.3" stroke="#F7941E" stroke-miterlimit="10"/>
<path id="Vector_126" d="M904 416.7L917.1 415.6" stroke="#F7941E" stroke-miterlimit="10"/>
</g>
<g id="Group_59">
<path id="Vector_127" d="M804.6 430.4L817.5 428.1" stroke="#F7941E" stroke-miterlimit="10"/>
<path id="Vector_128" d="M903.5 413L916.4 410.7" stroke="#F7941E" stroke-miterlimit="10"/>
</g>
<g id="Group_60">
<path id="Vector_129" d="M805.6 435.2L818.4 431.8" stroke="#F7941E" stroke-miterlimit="10"/>
<path id="Vector_130" d="M902.6 409.2L915.4 405.8" stroke="#F7941E" stroke-miterlimit="10"/>
</g>
<g id="Group_61">
<path id="Vector_131" d="M807.1 440L819.5 435.5" stroke="#F7941E" stroke-miterlimit="10"/>
<path id="Vector_132" d="M901.5 405.6L913.9 401.1" stroke="#F7941E" stroke-miterlimit="10"/>
</g>
<g id="Group_62">
<path id="Vector_133" d="M809 444.5L821 439" stroke="#F7941E" stroke-miterlimit="10"/>
<path id="Vector_134" d="M900 402.1L912 396.5" stroke="#F7941E" stroke-miterlimit="10"/>
</g>
<g id="Group_63">
<path id="Vector_135" d="M811.3 448.9L822.7 442.3" stroke="#F7941E" stroke-miterlimit="10"/>
<path id="Vector_136" d="M898.3 398.7L909.7 392.1" stroke="#F7941E" stroke-miterlimit="10"/>
</g>
<g id="Group_64">
<path id="Vector_137" d="M814 453.1L824.8 445.6" stroke="#F7941E" stroke-miterlimit="10"/>
<path id="Vector_138" d="M896.2 395.5L907 388" stroke="#F7941E" stroke-miterlimit="10"/>
</g>
<g id="Group_65">
<path id="Vector_139" d="M817 457L827.1 448.6" stroke="#F7941E" stroke-miterlimit="10"/>
<path id="Vector_140" d="M893.9 392.5L904 384" stroke="#F7941E" stroke-miterlimit="10"/>
</g>
<g id="Group_66">
<path id="Vector_141" d="M820.3 460.7L829.7 451.4" stroke="#F7941E" stroke-miterlimit="10"/>
<path id="Vector_142" d="M891.3 389.7L900.7 380.4" stroke="#F7941E" stroke-miterlimit="10"/>
</g>
<g id="Group_67">
<path id="Vector_143" d="M824 464L832.5 453.9" stroke="#F7941E" stroke-miterlimit="10"/>
<path id="Vector_144" d="M888.5 387.1L897 377" stroke="#F7941E" stroke-miterlimit="10"/>
</g>
<g id="Group_68">
<path id="Vector_145" d="M827.9 467.1L835.5 456.3" stroke="#F7941E" stroke-miterlimit="10"/>
<path id="Vector_146" d="M885.5 384.8L893.1 374" stroke="#F7941E" stroke-miterlimit="10"/>
</g>
<g id="Group_69">
<path id="Vector_147" d="M832.1 469.7L838.7 458.3" stroke="#F7941E" stroke-miterlimit="10"/>
<path id="Vector_148" d="M882.3 382.8L888.9 371.3" stroke="#F7941E" stroke-miterlimit="10"/>
</g>
<g id="Group_70">
<path id="Vector_149" d="M836.5 472L842.1 460.1" stroke="#F7941E" stroke-miterlimit="10"/>
<path id="Vector_150" d="M878.9 381L884.5 369.1" stroke="#F7941E" stroke-miterlimit="10"/>
</g>
<g id="Group_71">
<path id="Vector_151" d="M841.1 473.9L845.6 461.5" stroke="#F7941E" stroke-miterlimit="10"/>
<path id="Vector_152" d="M875.4 379.5L879.9 367.2" stroke="#F7941E" stroke-miterlimit="10"/>
</g>
<g id="Group_72">
<path id="Vector_153" d="M845.8 475.4L849.2 462.7" stroke="#F7941E" stroke-miterlimit="10"/>
<path id="Vector_154" d="M871.8 378.4L875.2 365.7" stroke="#F7941E" stroke-miterlimit="10"/>
</g>
<g id="Group_73">
<path id="Vector_155" d="M850.6 476.5L852.9 463.5" stroke="#F7941E" stroke-miterlimit="10"/>
<path id="Vector_156" d="M868.1 377.6L870.4 364.6" stroke="#F7941E" stroke-miterlimit="10"/>
</g>
<g id="Group_74">
<path id="Vector_157" d="M855.5 477.1L856.7 464" stroke="#F7941E" stroke-miterlimit="10"/>
<path id="Vector_158" d="M864.3 377.1L865.4 364" stroke="#F7941E" stroke-miterlimit="10"/>
</g>
</g>
</g>
<g id="Group_75">
<g id="level3A">
<path id="Vector_159" d="M609.5 417.5H589.5C589.5 364.5 546.4 321.5 493.5 321.5V301.5C557.5 301.5 609.5 353.5 609.5 417.5Z" stroke="#40EA24" stroke-miterlimit="10"/>
</g>
<g id="level4">
<path id="Vector_160" d="M493.5 547.2C565.131 547.2 623.2 489.131 623.2 417.5C623.2 345.869 565.131 287.8 493.5 287.8C421.869 287.8 363.8 345.869 363.8 417.5C363.8 489.131 421.869 547.2 493.5 547.2Z" stroke="#0071BC" stroke-miterlimit="10"/>
</g>
<g id="level3">
<path id="Vector_161" d="M493.5 523.5C552.042 523.5 599.5 476.042 599.5 417.5C599.5 358.958 552.042 311.5 493.5 311.5C434.958 311.5 387.5 358.958 387.5 417.5C387.5 476.042 434.958 523.5 493.5 523.5Z" stroke="#0071BC" stroke-miterlimit="10"/>
</g>
<g id="level2">
<path id="Vector_162" d="M493.5 490.5C533.817 490.5 566.5 457.817 566.5 417.5C566.5 377.183 533.817 344.5 493.5 344.5C453.183 344.5 420.5 377.183 420.5 417.5C420.5 457.817 453.183 490.5 493.5 490.5Z" stroke="#0071BC" stroke-width="6" stroke-miterlimit="10"/>
</g>
<g id="level5">
<path id="Vector_163" d="M564.6 291.7C608.4 316.6 638 363.6 638 417.5C638 471.6 608.1 518.8 564 543.6" stroke="#40EA24" stroke-width="6" stroke-miterlimit="10"/>
<path id="Vector_164" d="M378 330.7C404.4 295.7 446.3 273 493.5 273" stroke="#40EA24" stroke-width="6" stroke-miterlimit="10"/>
<path id="Vector_165" d="M493.5 562.1C413.8 562.1 349 497.3 349 417.6" stroke="#40EA24" stroke-width="6" stroke-miterlimit="10"/>
</g>
<g id="level1">
<g id="Group_76">
<path id="Vector_166" d="M493.5 360.7V373.9" stroke="#40EA24" stroke-miterlimit="10"/>
<path id="Vector_167" d="M493.5 461.2V474.3" stroke="#40EA24" stroke-miterlimit="10"/>
</g>
<g id="Group_77">
<path id="Vector_168" d="M488.5 361L489.7 374.1" stroke="#40EA24" stroke-miterlimit="10"/>
<path id="Vector_169" d="M497.3 461L498.4 474.1" stroke="#40EA24" stroke-miterlimit="10"/>
</g>
<g id="Group_78">
<path id="Vector_170" d="M483.6 361.6L485.9 374.6" stroke="#40EA24" stroke-miterlimit="10"/>
<path id="Vector_171" d="M501.1 460.5L503.4 473.5" stroke="#40EA24" stroke-miterlimit="10"/>
</g>
<g id="Group_79">
<path id="Vector_172" d="M478.8 362.7L482.2 375.4" stroke="#40EA24" stroke-miterlimit="10"/>
<path id="Vector_173" d="M504.8 459.7L508.2 472.4" stroke="#40EA24" stroke-miterlimit="10"/>
</g>
<g id="Group_80">
<path id="Vector_174" d="M474.1 364.2L478.6 376.5" stroke="#40EA24" stroke-miterlimit="10"/>
<path id="Vector_175" d="M508.4 458.5L512.9 470.9" stroke="#40EA24" stroke-miterlimit="10"/>
</g>
<g id="Group_81">
<path id="Vector_176" d="M469.5 366.1L475.1 378" stroke="#40EA24" stroke-miterlimit="10"/>
<path id="Vector_177" d="M511.9 457.1L517.5 469" stroke="#40EA24" stroke-miterlimit="10"/>
</g>
<g id="Group_82">
<path id="Vector_178" d="M465.1 368.3L471.7 379.8" stroke="#40EA24" stroke-miterlimit="10"/>
<path id="Vector_179" d="M515.3 455.3L521.9 466.7" stroke="#40EA24" stroke-miterlimit="10"/>
</g>
<g id="Group_83">
<path id="Vector_180" d="M460.9 371L468.5 381.8" stroke="#40EA24" stroke-miterlimit="10"/>
<path id="Vector_181" d="M518.5 453.3L526.1 464.1" stroke="#40EA24" stroke-miterlimit="10"/>
</g>
<g id="Group_84">
<path id="Vector_182" d="M457 374L465.5 384.1" stroke="#40EA24" stroke-miterlimit="10"/>
<path id="Vector_183" d="M521.5 450.9L530 461" stroke="#40EA24" stroke-miterlimit="10"/>
</g>
<g id="Group_85">
<path id="Vector_184" d="M453.3 377.4L462.7 386.7" stroke="#40EA24" stroke-miterlimit="10"/>
<path id="Vector_185" d="M524.3 448.4L533.7 457.7" stroke="#40EA24" stroke-miterlimit="10"/>
</g>
<g id="Group_86">
<path id="Vector_186" d="M450 381L460.1 389.5" stroke="#40EA24" stroke-miterlimit="10"/>
<path id="Vector_187" d="M526.9 445.6L537 454" stroke="#40EA24" stroke-miterlimit="10"/>
</g>
<g id="Group_87">
<path id="Vector_188" d="M447 385L457.8 392.5" stroke="#40EA24" stroke-miterlimit="10"/>
<path id="Vector_189" d="M529.2 442.6L540 450.1" stroke="#40EA24" stroke-miterlimit="10"/>
</g>
<g id="Group_88">
<path id="Vector_190" d="M444.3 389.1L455.7 395.7" stroke="#40EA24" stroke-miterlimit="10"/>
<path id="Vector_191" d="M531.3 439.3L542.7 445.9" stroke="#40EA24" stroke-miterlimit="10"/>
</g>
<g id="Group_89">
<path id="Vector_192" d="M442 393.5L454 399.1" stroke="#40EA24" stroke-miterlimit="10"/>
<path id="Vector_193" d="M533 436L545 441.5" stroke="#40EA24" stroke-miterlimit="10"/>
</g>
<g id="Group_90">
<path id="Vector_194" d="M440.1 398.1L452.5 402.6" stroke="#40EA24" stroke-miterlimit="10"/>
<path id="Vector_195" d="M534.5 432.5L546.9 437" stroke="#40EA24" stroke-miterlimit="10"/>
</g>
<g id="Group_91">
<path id="Vector_196" d="M438.6 402.8L451.4 406.2" stroke="#40EA24" stroke-miterlimit="10"/>
<path id="Vector_197" d="M535.6 428.8L548.4 432.2" stroke="#40EA24" stroke-miterlimit="10"/>
</g>
<g id="Group_92">
<path id="Vector_198" d="M437.6 407.7L450.5 410" stroke="#40EA24" stroke-miterlimit="10"/>
<path id="Vector_199" d="M536.5 425.1L549.4 427.4" stroke="#40EA24" stroke-miterlimit="10"/>
</g>
<g id="Group_93">
<path id="Vector_200" d="M436.9 412.6L450 413.7" stroke="#40EA24" stroke-miterlimit="10"/>
<path id="Vector_201" d="M537 421.3L550.1 422.5" stroke="#40EA24" stroke-miterlimit="10"/>
</g>
<g id="Group_94">
<path id="Vector_202" d="M436.7 417.5H449.9" stroke="#40EA24" stroke-miterlimit="10"/>
<path id="Vector_203" d="M537.1 417.5H550.3" stroke="#40EA24" stroke-miterlimit="10"/>
</g>
<g id="Group_95">
<path id="Vector_204" d="M436.9 422.5L450 421.3" stroke="#40EA24" stroke-miterlimit="10"/>
<path id="Vector_205" d="M537 413.7L550.1 412.6" stroke="#40EA24" stroke-miterlimit="10"/>
</g>
<g id="Group_96">
<path id="Vector_206" d="M437.6 427.4L450.5 425.1" stroke="#40EA24" stroke-miterlimit="10"/>
<path id="Vector_207" d="M536.5 410L549.4 407.7" stroke="#40EA24" stroke-miterlimit="10"/>
</g>
<g id="Group_97">
<path id="Vector_208" d="M438.6 432.2L451.4 428.8" stroke="#40EA24" stroke-miterlimit="10"/>
<path id="Vector_209" d="M535.6 406.2L548.4 402.8" stroke="#40EA24" stroke-miterlimit="10"/>
</g>
<g id="Group_98">
<path id="Vector_210" d="M440.1 437L452.5 432.5" stroke="#40EA24" stroke-miterlimit="10"/>
<path id="Vector_211" d="M534.5 402.6L546.9 398.1" stroke="#40EA24" stroke-miterlimit="10"/>
</g>
<g id="Group_99">
<path id="Vector_212" d="M442 441.5L454 436" stroke="#40EA24" stroke-miterlimit="10"/>
<path id="Vector_213" d="M533 399.1L545 393.5" stroke="#40EA24" stroke-miterlimit="10"/>
</g>
<g id="Group_100">
<path id="Vector_214" d="M444.3 445.9L455.7 439.3" stroke="#40EA24" stroke-miterlimit="10"/>
<path id="Vector_215" d="M531.3 395.7L542.7 389.1" stroke="#40EA24" stroke-miterlimit="10"/>
</g>
<g id="Group_101">
<path id="Vector_216" d="M447 450.1L457.8 442.6" stroke="#40EA24" stroke-miterlimit="10"/>
<path id="Vector_217" d="M529.2 392.5L540 385" stroke="#40EA24" stroke-miterlimit="10"/>
</g>
<g id="Group_102">
<path id="Vector_218" d="M450 454L460.1 445.6" stroke="#40EA24" stroke-miterlimit="10"/>
<path id="Vector_219" d="M526.9 389.5L537 381" stroke="#40EA24" stroke-miterlimit="10"/>
</g>
<g id="Group_103">
<path id="Vector_220" d="M453.3 457.7L462.7 448.4" stroke="#40EA24" stroke-miterlimit="10"/>
<path id="Vector_221" d="M524.3 386.7L533.7 377.4" stroke="#40EA24" stroke-miterlimit="10"/>
</g>
<g id="Group_104">
<path id="Vector_222" d="M457 461L465.5 450.9" stroke="#40EA24" stroke-miterlimit="10"/>
<path id="Vector_223" d="M521.5 384.1L530 374" stroke="#40EA24" stroke-miterlimit="10"/>
</g>
<g id="Group_105">
<path id="Vector_224" d="M460.9 464.1L468.5 453.3" stroke="#40EA24" stroke-miterlimit="10"/>
<path id="Vector_225" d="M518.5 381.8L526.1 371" stroke="#40EA24" stroke-miterlimit="10"/>
</g>
<g id="Group_106">
<path id="Vector_226" d="M465.1 466.7L471.7 455.3" stroke="#40EA24" stroke-miterlimit="10"/>
<path id="Vector_227" d="M515.3 379.8L521.9 368.3" stroke="#40EA24" stroke-miterlimit="10"/>
</g>
<g id="Group_107">
<path id="Vector_228" d="M469.5 469L475.1 457.1" stroke="#40EA24" stroke-miterlimit="10"/>
<path id="Vector_229" d="M511.9 378L517.5 366.1" stroke="#40EA24" stroke-miterlimit="10"/>
</g>
<g id="Group_108">
<path id="Vector_230" d="M474.1 470.9L478.6 458.5" stroke="#40EA24" stroke-miterlimit="10"/>
<path id="Vector_231" d="M508.4 376.5L512.9 364.2" stroke="#40EA24" stroke-miterlimit="10"/>
</g>
<g id="Group_109">
<path id="Vector_232" d="M478.8 472.4L482.2 459.7" stroke="#40EA24" stroke-miterlimit="10"/>
<path id="Vector_233" d="M504.8 375.4L508.2 362.7" stroke="#40EA24" stroke-miterlimit="10"/>
</g>
<g id="Group_110">
<path id="Vector_234" d="M483.6 473.5L485.9 460.5" stroke="#40EA24" stroke-miterlimit="10"/>
<path id="Vector_235" d="M501.1 374.6L503.4 361.6" stroke="#40EA24" stroke-miterlimit="10"/>
</g>
<g id="Group_111">
<path id="Vector_236" d="M488.5 474.1L489.7 461" stroke="#40EA24" stroke-miterlimit="10"/>
<path id="Vector_237" d="M497.3 374.1L498.4 361" stroke="#40EA24" stroke-miterlimit="10"/>
</g>
</g>
</g>
<g id="Group_112">
<g id="level3A_2">
<path id="Vector_238" d="M609.5 417.5H589.5C589.5 364.5 546.4 321.5 493.5 321.5V301.5C557.5 301.5 609.5 353.5 609.5 417.5Z" stroke="#F7941E" stroke-miterlimit="10"/>
</g>
<g id="level4_2">
<path id="Vector_239" d="M493.5 547.2C565.131 547.2 623.2 489.131 623.2 417.5C623.2 345.869 565.131 287.8 493.5 287.8C421.869 287.8 363.8 345.869 363.8 417.5C363.8 489.131 421.869 547.2 493.5 547.2Z" stroke="#0071BC" stroke-miterlimit="10"/>
</g>
<g id="level3_2">
<path id="Vector_240" d="M493.5 523.5C552.042 523.5 599.5 476.042 599.5 417.5C599.5 358.958 552.042 311.5 493.5 311.5C434.958 311.5 387.5 358.958 387.5 417.5C387.5 476.042 434.958 523.5 493.5 523.5Z" stroke="#0071BC" stroke-miterlimit="10"/>
</g>
<g id="level2_2">
<path id="Vector_241" d="M493.5 490.5C533.817 490.5 566.5 457.817 566.5 417.5C566.5 377.183 533.817 344.5 493.5 344.5C453.183 344.5 420.5 377.183 420.5 417.5C420.5 457.817 453.183 490.5 493.5 490.5Z" stroke="#0071BC" stroke-width="6" stroke-miterlimit="10"/>
</g>
<g id="level5_2">
<path id="Vector_242" d="M564.6 291.7C608.4 316.6 638 363.6 638 417.5C638 471.6 608.1 518.8 564 543.6" stroke="#F7941E" stroke-width="6" stroke-miterlimit="10"/>
<path id="Vector_243" d="M378 330.7C404.4 295.7 446.3 273 493.5 273" stroke="#F7941E" stroke-width="6" stroke-miterlimit="10"/>
<path id="Vector_244" d="M493.5 562.1C413.8 562.1 349 497.3 349 417.6" stroke="#F7941E" stroke-width="6" stroke-miterlimit="10"/>
</g>
<g id="level1_2">
<g id="Group_113">
<path id="Vector_245" d="M493.5 360.7V373.9" stroke="#F7941E" stroke-miterlimit="10"/>
<path id="Vector_246" d="M493.5 461.2V474.3" stroke="#F7941E" stroke-miterlimit="10"/>
</g>
<g id="Group_114">
<path id="Vector_247" d="M488.5 361L489.7 374.1" stroke="#F7941E" stroke-miterlimit="10"/>
<path id="Vector_248" d="M497.3 461L498.4 474.1" stroke="#F7941E" stroke-miterlimit="10"/>
</g>
<g id="Group_115">
<path id="Vector_249" d="M483.6 361.6L485.9 374.6" stroke="#F7941E" stroke-miterlimit="10"/>
<path id="Vector_250" d="M501.1 460.5L503.4 473.5" stroke="#F7941E" stroke-miterlimit="10"/>
</g>
<g id="Group_116">
<path id="Vector_251" d="M478.8 362.7L482.2 375.4" stroke="#F7941E" stroke-miterlimit="10"/>
<path id="Vector_252" d="M504.8 459.7L508.2 472.4" stroke="#F7941E" stroke-miterlimit="10"/>
</g>
<g id="Group_117">
<path id="Vector_253" d="M474.1 364.2L478.6 376.5" stroke="#F7941E" stroke-miterlimit="10"/>
<path id="Vector_254" d="M508.4 458.5L512.9 470.9" stroke="#F7941E" stroke-miterlimit="10"/>
</g>
<g id="Group_118">
<path id="Vector_255" d="M469.5 366.1L475.1 378" stroke="#F7941E" stroke-miterlimit="10"/>
<path id="Vector_256" d="M511.9 457.1L517.5 469" stroke="#F7941E" stroke-miterlimit="10"/>
</g>
<g id="Group_119">
<path id="Vector_257" d="M465.1 368.3L471.7 379.8" stroke="#F7941E" stroke-miterlimit="10"/>
<path id="Vector_258" d="M515.3 455.3L521.9 466.7" stroke="#F7941E" stroke-miterlimit="10"/>
</g>
<g id="Group_120">
<path id="Vector_259" d="M460.9 371L468.5 381.8" stroke="#F7941E" stroke-miterlimit="10"/>
<path id="Vector_260" d="M518.5 453.3L526.1 464.1" stroke="#F7941E" stroke-miterlimit="10"/>
</g>
<g id="Group_121">
<path id="Vector_261" d="M457 374L465.5 384.1" stroke="#F7941E" stroke-miterlimit="10"/>
<path id="Vector_262" d="M521.5 450.9L530 461" stroke="#F7941E" stroke-miterlimit="10"/>
</g>
<g id="Group_122">
<path id="Vector_263" d="M453.3 377.4L462.7 386.7" stroke="#F7941E" stroke-miterlimit="10"/>
<path id="Vector_264" d="M524.3 448.4L533.7 457.7" stroke="#F7941E" stroke-miterlimit="10"/>
</g>
<g id="Group_123">
<path id="Vector_265" d="M450 381L460.1 389.5" stroke="#F7941E" stroke-miterlimit="10"/>
<path id="Vector_266" d="M526.9 445.6L537 454" stroke="#F7941E" stroke-miterlimit="10"/>
</g>
<g id="Group_124">
<path id="Vector_267" d="M447 385L457.8 392.5" stroke="#F7941E" stroke-miterlimit="10"/>
<path id="Vector_268" d="M529.2 442.6L540 450.1" stroke="#F7941E" stroke-miterlimit="10"/>
</g>
<g id="Group_125">
<path id="Vector_269" d="M444.3 389.1L455.7 395.7" stroke="#F7941E" stroke-miterlimit="10"/>
<path id="Vector_270" d="M531.3 439.3L542.7 445.9" stroke="#F7941E" stroke-miterlimit="10"/>
</g>
<g id="Group_126">
<path id="Vector_271" d="M442 393.5L454 399.1" stroke="#F7941E" stroke-miterlimit="10"/>
<path id="Vector_272" d="M533 436L545 441.5" stroke="#F7941E" stroke-miterlimit="10"/>
</g>
<g id="Group_127">
<path id="Vector_273" d="M440.1 398.1L452.5 402.6" stroke="#F7941E" stroke-miterlimit="10"/>
<path id="Vector_274" d="M534.5 432.5L546.9 437" stroke="#F7941E" stroke-miterlimit="10"/>
</g>
<g id="Group_128">
<path id="Vector_275" d="M438.6 402.8L451.4 406.2" stroke="#F7941E" stroke-miterlimit="10"/>
<path id="Vector_276" d="M535.6 428.8L548.4 432.2" stroke="#F7941E" stroke-miterlimit="10"/>
</g>
<g id="Group_129">
<path id="Vector_277" d="M437.6 407.7L450.5 410" stroke="#F7941E" stroke-miterlimit="10"/>
<path id="Vector_278" d="M536.5 425.1L549.4 427.4" stroke="#F7941E" stroke-miterlimit="10"/>
</g>
<g id="Group_130">
<path id="Vector_279" d="M436.9 412.6L450 413.7" stroke="#F7941E" stroke-miterlimit="10"/>
<path id="Vector_280" d="M537 421.3L550.1 422.5" stroke="#F7941E" stroke-miterlimit="10"/>
</g>
<g id="Group_131">
<path id="Vector_281" d="M436.7 417.5H449.9" stroke="#F7941E" stroke-miterlimit="10"/>
<path id="Vector_282" d="M537.1 417.5H550.3" stroke="#F7941E" stroke-miterlimit="10"/>
</g>
<g id="Group_132">
<path id="Vector_283" d="M436.9 422.5L450 421.3" stroke="#F7941E" stroke-miterlimit="10"/>
<path id="Vector_284" d="M537 413.7L550.1 412.6" stroke="#F7941E" stroke-miterlimit="10"/>
</g>
<g id="Group_133">
<path id="Vector_285" d="M437.6 427.4L450.5 425.1" stroke="#F7941E" stroke-miterlimit="10"/>
<path id="Vector_286" d="M536.5 410L549.4 407.7" stroke="#F7941E" stroke-miterlimit="10"/>
</g>
<g id="Group_134">
<path id="Vector_287" d="M438.6 432.2L451.4 428.8" stroke="#F7941E" stroke-miterlimit="10"/>
<path id="Vector_288" d="M535.6 406.2L548.4 402.8" stroke="#F7941E" stroke-miterlimit="10"/>
</g>
<g id="Group_135">
<path id="Vector_289" d="M440.1 437L452.5 432.5" stroke="#F7941E" stroke-miterlimit="10"/>
<path id="Vector_290" d="M534.5 402.6L546.9 398.1" stroke="#F7941E" stroke-miterlimit="10"/>
</g>
<g id="Group_136">
<path id="Vector_291" d="M442 441.5L454 436" stroke="#F7941E" stroke-miterlimit="10"/>
<path id="Vector_292" d="M533 399.1L545 393.5" stroke="#F7941E" stroke-miterlimit="10"/>
</g>
<g id="Group_137">
<path id="Vector_293" d="M444.3 445.9L455.7 439.3" stroke="#F7941E" stroke-miterlimit="10"/>
<path id="Vector_294" d="M531.3 395.7L542.7 389.1" stroke="#F7941E" stroke-miterlimit="10"/>
</g>
<g id="Group_138">
<path id="Vector_295" d="M447 450.1L457.8 442.6" stroke="#F7941E" stroke-miterlimit="10"/>
<path id="Vector_296" d="M529.2 392.5L540 385" stroke="#F7941E" stroke-miterlimit="10"/>
</g>
<g id="Group_139">
<path id="Vector_297" d="M450 454L460.1 445.6" stroke="#F7941E" stroke-miterlimit="10"/>
<path id="Vector_298" d="M526.9 389.5L537 381" stroke="#F7941E" stroke-miterlimit="10"/>
</g>
<g id="Group_140">
<path id="Vector_299" d="M453.3 457.7L462.7 448.4" stroke="#F7941E" stroke-miterlimit="10"/>
<path id="Vector_300" d="M524.3 386.7L533.7 377.4" stroke="#F7941E" stroke-miterlimit="10"/>
</g>
<g id="Group_141">
<path id="Vector_301" d="M457 461L465.5 450.9" stroke="#F7941E" stroke-miterlimit="10"/>
<path id="Vector_302" d="M521.5 384.1L530 374" stroke="#F7941E" stroke-miterlimit="10"/>
</g>
<g id="Group_142">
<path id="Vector_303" d="M460.9 464.1L468.5 453.3" stroke="#F7941E" stroke-miterlimit="10"/>
<path id="Vector_304" d="M518.5 381.8L526.1 371" stroke="#F7941E" stroke-miterlimit="10"/>
</g>
<g id="Group_143">
<path id="Vector_305" d="M465.1 466.7L471.7 455.3" stroke="#F7941E" stroke-miterlimit="10"/>
<path id="Vector_306" d="M515.3 379.8L521.9 368.3" stroke="#F7941E" stroke-miterlimit="10"/>
</g>
<g id="Group_144">
<path id="Vector_307" d="M469.5 469L475.1 457.1" stroke="#F7941E" stroke-miterlimit="10"/>
<path id="Vector_308" d="M511.9 378L517.5 366.1" stroke="#F7941E" stroke-miterlimit="10"/>
</g>
<g id="Group_145">
<path id="Vector_309" d="M474.1 470.9L478.6 458.5" stroke="#F7941E" stroke-miterlimit="10"/>
<path id="Vector_310" d="M508.4 376.5L512.9 364.2" stroke="#F7941E" stroke-miterlimit="10"/>
</g>
<g id="Group_146">
<path id="Vector_311" d="M478.8 472.4L482.2 459.7" stroke="#F7941E" stroke-miterlimit="10"/>
<path id="Vector_312" d="M504.8 375.4L508.2 362.7" stroke="#F7941E" stroke-miterlimit="10"/>
</g>
<g id="Group_147">
<path id="Vector_313" d="M483.6 473.5L485.9 460.5" stroke="#F7941E" stroke-miterlimit="10"/>
<path id="Vector_314" d="M501.1 374.6L503.4 361.6" stroke="#F7941E" stroke-miterlimit="10"/>
</g>
<g id="Group_148">
<path id="Vector_315" d="M488.5 474.1L489.7 461" stroke="#F7941E" stroke-miterlimit="10"/>
<path id="Vector_316" d="M497.3 374.1L498.4 361" stroke="#F7941E" stroke-miterlimit="10"/>
</g>
</g>
</g>
</g>
<defs>
<filter id="filter0_ddddd" x="-4" y="0" width="1408" height="988" filterUnits="userSpaceOnUse" color-interpolation-filters="sRGB">
<feFlood flood-opacity="0" result="BackgroundImageFix"/>
<feColorMatrix in="SourceAlpha" type="matrix" values="0 0 0 0 0 0 0 0 0 0 0 0 0 0 0 0 0 0 127 0"/>
<feOffset dy="4"/>
<feGaussianBlur stdDeviation="2"/>
<feColorMatrix type="matrix" values="0 0 0 0 0 0 0 0 0 0 0 0 0 0 0 0 0 0 0.25 0"/>
<feBlend mode="normal" in2="BackgroundImageFix" result="effect1_dropShadow"/>
<feColorMatrix in="SourceAlpha" type="matrix" values="0 0 0 0 0 0 0 0 0 0 0 0 0 0 0 0 0 0 127 0"/>
<feOffset dy="4"/>
<feGaussianBlur stdDeviation="2"/>
<feColorMatrix type="matrix" values="0 0 0 0 0 0 0 0 0 0 0 0 0 0 0 0 0 0 0.25 0"/>
<feBlend mode="normal" in2="effect1_dropShadow" result="effect2_dropShadow"/>
<feColorMatrix in="SourceAlpha" type="matrix" values="0 0 0 0 0 0 0 0 0 0 0 0 0 0 0 0 0 0 127 0"/>
<feOffset dy="4"/>
<feGaussianBlur stdDeviation="2"/>
<feColorMatrix type="matrix" values="0 0 0 0 0 0 0 0 0 0 0 0 0 0 0 0 0 0 0.25 0"/>
<feBlend mode="normal" in2="effect2_dropShadow" result="effect3_dropShadow"/>
<feColorMatrix in="SourceAlpha" type="matrix" values="0 0 0 0 0 0 0 0 0 0 0 0 0 0 0 0 0 0 127 0"/>
<feOffset dy="4"/>
<feGaussianBlur stdDeviation="2"/>
<feColorMatrix type="matrix" values="0 0 0 0 0 0 0 0 0 0 0 0 0 0 0 0 0 0 0.25 0"/>
<feBlend mode="normal" in2="effect3_dropShadow" result="effect4_dropShadow"/>
<feColorMatrix in="SourceAlpha" type="matrix" values="0 0 0 0 0 0 0 0 0 0 0 0 0 0 0 0 0 0 127 0"/>
<feOffset dy="4"/>
<feGaussianBlur stdDeviation="2"/>
<feColorMatrix type="matrix" values="0 0 0 0 0 0 0 0 0 0 0 0 0 0 0 0 0 0 0.25 0"/>
<feBlend mode="normal" in2="effect4_dropShadow" result="effect5_dropShadow"/>
<feBlend mode="normal" in="SourceGraphic" in2="effect5_dropShadow" result="shape"/>
</filter>
</defs>
</svg>
