<svg width="1408" height="988" viewBox="0 0 1408 988" fill="none" xmlns="http://www.w3.org/2000/svg">
<g id="Free HUD circle elements 1" filter="url(#filter0_ddddd)">
<path id="bg" d="M1404 0H4V980H1404V0Z" fill="url(#paint0_radial)"/>
<g id="Group">
<g id="level3A">
<path id="Vector" d="M931.5 446.5H911.5C911.5 393.5 868.4 350.5 815.5 350.5V330.5C879.5 330.5 931.5 382.5 931.5 446.5Z" stroke="#F7941E" stroke-miterlimit="10"/>
</g>
<g id="level4">
<path id="Vector_2" d="M815.5 576.2C887.131 576.2 945.2 518.131 945.2 446.5C945.2 374.869 887.131 316.8 815.5 316.8C743.869 316.8 685.8 374.869 685.8 446.5C685.8 518.131 743.869 576.2 815.5 576.2Z" stroke="#0071BC" stroke-miterlimit="10"/>
</g>
<g id="level3">
<path id="Vector_3" d="M815.5 552.5C874.042 552.5 921.5 505.042 921.5 446.5C921.5 387.958 874.042 340.5 815.5 340.5C756.958 340.5 709.5 387.958 709.5 446.5C709.5 505.042 756.958 552.5 815.5 552.5Z" stroke="#0071BC" stroke-miterlimit="10"/>
</g>
<g id="level2">
<path id="Vector_4" d="M815.5 519.5C855.817 519.5 888.5 486.817 888.5 446.5C888.5 406.183 855.817 373.5 815.5 373.5C775.183 373.5 742.5 406.183 742.5 446.5C742.5 486.817 775.183 519.5 815.5 519.5Z" stroke="#0071BC" stroke-width="6" stroke-miterlimit="10"/>
</g>
<g id="level5">
<path id="Vector_5" d="M886.6 320.7C930.4 345.6 960 392.6 960 446.5C960 500.6 930.1 547.8 886 572.6" stroke="#F7941E" stroke-width="6" stroke-miterlimit="10"/>
<path id="Vector_6" d="M700 359.7C726.4 324.7 768.3 302 815.5 302" stroke="#F7941E" stroke-width="6" stroke-miterlimit="10"/>
<path id="Vector_7" d="M815.5 591.1C735.8 591.1 671 526.3 671 446.6" stroke="#F7941E" stroke-width="6" stroke-miterlimit="10"/>
</g>
<g id="level1">
<g id="Group_2">
<path id="Vector_8" d="M815.5 389.7V402.9" stroke="#F7941E" stroke-miterlimit="10"/>
<path id="Vector_9" d="M815.5 490.2V503.3" stroke="#F7941E" stroke-miterlimit="10"/>
</g>
<g id="Group_3">
<path id="Vector_10" d="M810.5 390L811.7 403.1" stroke="#F7941E" stroke-miterlimit="10"/>
<path id="Vector_11" d="M819.3 490L820.4 503.1" stroke="#F7941E" stroke-miterlimit="10"/>
</g>
<g id="Group_4">
<path id="Vector_12" d="M805.6 390.6L807.9 403.6" stroke="#F7941E" stroke-miterlimit="10"/>
<path id="Vector_13" d="M823.1 489.5L825.4 502.5" stroke="#F7941E" stroke-miterlimit="10"/>
</g>
<g id="Group_5">
<path id="Vector_14" d="M800.8 391.7L804.2 404.4" stroke="#F7941E" stroke-miterlimit="10"/>
<path id="Vector_15" d="M826.8 488.7L830.2 501.4" stroke="#F7941E" stroke-miterlimit="10"/>
</g>
<g id="Group_6">
<path id="Vector_16" d="M796.1 393.2L800.6 405.5" stroke="#F7941E" stroke-miterlimit="10"/>
<path id="Vector_17" d="M830.4 487.5L834.9 499.9" stroke="#F7941E" stroke-miterlimit="10"/>
</g>
<g id="Group_7">
<path id="Vector_18" d="M791.5 395.1L797.1 407" stroke="#F7941E" stroke-miterlimit="10"/>
<path id="Vector_19" d="M833.9 486.1L839.5 498" stroke="#F7941E" stroke-miterlimit="10"/>
</g>
<g id="Group_8">
<path id="Vector_20" d="M787.1 397.3L793.7 408.8" stroke="#F7941E" stroke-miterlimit="10"/>
<path id="Vector_21" d="M837.3 484.3L843.9 495.7" stroke="#F7941E" stroke-miterlimit="10"/>
</g>
<g id="Group_9">
<path id="Vector_22" d="M782.9 400L790.5 410.8" stroke="#F7941E" stroke-miterlimit="10"/>
<path id="Vector_23" d="M840.5 482.3L848.1 493.1" stroke="#F7941E" stroke-miterlimit="10"/>
</g>
<g id="Group_10">
<path id="Vector_24" d="M779 403L787.5 413.1" stroke="#F7941E" stroke-miterlimit="10"/>
<path id="Vector_25" d="M843.5 479.9L852 490" stroke="#F7941E" stroke-miterlimit="10"/>
</g>
<g id="Group_11">
<path id="Vector_26" d="M775.3 406.4L784.7 415.7" stroke="#F7941E" stroke-miterlimit="10"/>
<path id="Vector_27" d="M846.3 477.4L855.7 486.7" stroke="#F7941E" stroke-miterlimit="10"/>
</g>
<g id="Group_12">
<path id="Vector_28" d="M772 410L782.1 418.5" stroke="#F7941E" stroke-miterlimit="10"/>
<path id="Vector_29" d="M848.9 474.6L859 483" stroke="#F7941E" stroke-miterlimit="10"/>
</g>
<g id="Group_13">
<path id="Vector_30" d="M769 414L779.8 421.5" stroke="#F7941E" stroke-miterlimit="10"/>
<path id="Vector_31" d="M851.2 471.6L862 479.1" stroke="#F7941E" stroke-miterlimit="10"/>
</g>
<g id="Group_14">
<path id="Vector_32" d="M766.3 418.1L777.7 424.7" stroke="#F7941E" stroke-miterlimit="10"/>
<path id="Vector_33" d="M853.3 468.3L864.7 474.9" stroke="#F7941E" stroke-miterlimit="10"/>
</g>
<g id="Group_15">
<path id="Vector_34" d="M764 422.5L776 428.1" stroke="#F7941E" stroke-miterlimit="10"/>
<path id="Vector_35" d="M855 465L867 470.5" stroke="#F7941E" stroke-miterlimit="10"/>
</g>
<g id="Group_16">
<path id="Vector_36" d="M762.1 427.1L774.5 431.6" stroke="#F7941E" stroke-miterlimit="10"/>
<path id="Vector_37" d="M856.5 461.5L868.9 466" stroke="#F7941E" stroke-miterlimit="10"/>
</g>
<g id="Group_17">
<path id="Vector_38" d="M760.6 431.8L773.4 435.2" stroke="#F7941E" stroke-miterlimit="10"/>
<path id="Vector_39" d="M857.6 457.8L870.4 461.2" stroke="#F7941E" stroke-miterlimit="10"/>
</g>
<g id="Group_18">
<path id="Vector_40" d="M759.6 436.7L772.5 439" stroke="#F7941E" stroke-miterlimit="10"/>
<path id="Vector_41" d="M858.5 454.1L871.4 456.4" stroke="#F7941E" stroke-miterlimit="10"/>
</g>
<g id="Group_19">
<path id="Vector_42" d="M758.9 441.6L772 442.7" stroke="#F7941E" stroke-miterlimit="10"/>
<path id="Vector_43" d="M859 450.3L872.1 451.5" stroke="#F7941E" stroke-miterlimit="10"/>
</g>
<g id="Group_20">
<path id="Vector_44" d="M758.7 446.5H771.9" stroke="#F7941E" stroke-miterlimit="10"/>
<path id="Vector_45" d="M859.1 446.5H872.3" stroke="#F7941E" stroke-miterlimit="10"/>
</g>
<g id="Group_21">
<path id="Vector_46" d="M758.9 451.5L772 450.3" stroke="#F7941E" stroke-miterlimit="10"/>
<path id="Vector_47" d="M859 442.7L872.1 441.6" stroke="#F7941E" stroke-miterlimit="10"/>
</g>
<g id="Group_22">
<path id="Vector_48" d="M759.6 456.4L772.5 454.1" stroke="#F7941E" stroke-miterlimit="10"/>
<path id="Vector_49" d="M858.5 439L871.4 436.7" stroke="#F7941E" stroke-miterlimit="10"/>
</g>
<g id="Group_23">
<path id="Vector_50" d="M760.6 461.2L773.4 457.8" stroke="#F7941E" stroke-miterlimit="10"/>
<path id="Vector_51" d="M857.6 435.2L870.4 431.8" stroke="#F7941E" stroke-miterlimit="10"/>
</g>
<g id="Group_24">
<path id="Vector_52" d="M762.1 466L774.5 461.5" stroke="#F7941E" stroke-miterlimit="10"/>
<path id="Vector_53" d="M856.5 431.6L868.9 427.1" stroke="#F7941E" stroke-miterlimit="10"/>
</g>
<g id="Group_25">
<path id="Vector_54" d="M764 470.5L776 465" stroke="#F7941E" stroke-miterlimit="10"/>
<path id="Vector_55" d="M855 428.1L867 422.5" stroke="#F7941E" stroke-miterlimit="10"/>
</g>
<g id="Group_26">
<path id="Vector_56" d="M766.3 474.9L777.7 468.3" stroke="#F7941E" stroke-miterlimit="10"/>
<path id="Vector_57" d="M853.3 424.7L864.7 418.1" stroke="#F7941E" stroke-miterlimit="10"/>
</g>
<g id="Group_27">
<path id="Vector_58" d="M769 479.1L779.8 471.6" stroke="#F7941E" stroke-miterlimit="10"/>
<path id="Vector_59" d="M851.2 421.5L862 414" stroke="#F7941E" stroke-miterlimit="10"/>
</g>
<g id="Group_28">
<path id="Vector_60" d="M772 483L782.1 474.6" stroke="#F7941E" stroke-miterlimit="10"/>
<path id="Vector_61" d="M848.9 418.5L859 410" stroke="#F7941E" stroke-miterlimit="10"/>
</g>
<g id="Group_29">
<path id="Vector_62" d="M775.3 486.7L784.7 477.4" stroke="#F7941E" stroke-miterlimit="10"/>
<path id="Vector_63" d="M846.3 415.7L855.7 406.4" stroke="#F7941E" stroke-miterlimit="10"/>
</g>
<g id="Group_30">
<path id="Vector_64" d="M779 490L787.5 479.9" stroke="#F7941E" stroke-miterlimit="10"/>
<path id="Vector_65" d="M843.5 413.1L852 403" stroke="#F7941E" stroke-miterlimit="10"/>
</g>
<g id="Group_31">
<path id="Vector_66" d="M782.9 493.1L790.5 482.3" stroke="#F7941E" stroke-miterlimit="10"/>
<path id="Vector_67" d="M840.5 410.8L848.1 400" stroke="#F7941E" stroke-miterlimit="10"/>
</g>
<g id="Group_32">
<path id="Vector_68" d="M787.1 495.7L793.7 484.3" stroke="#F7941E" stroke-miterlimit="10"/>
<path id="Vector_69" d="M837.3 408.8L843.9 397.3" stroke="#F7941E" stroke-miterlimit="10"/>
</g>
<g id="Group_33">
<path id="Vector_70" d="M791.5 498L797.1 486.1" stroke="#F7941E" stroke-miterlimit="10"/>
<path id="Vector_71" d="M833.9 407L839.5 395.1" stroke="#F7941E" stroke-miterlimit="10"/>
</g>
<g id="Group_34">
<path id="Vector_72" d="M796.1 499.9L800.6 487.5" stroke="#F7941E" stroke-miterlimit="10"/>
<path id="Vector_73" d="M830.4 405.5L834.9 393.2" stroke="#F7941E" stroke-miterlimit="10"/>
</g>
<g id="Group_35">
<path id="Vector_74" d="M800.8 501.4L804.2 488.7" stroke="#F7941E" stroke-miterlimit="10"/>
<path id="Vector_75" d="M826.8 404.4L830.2 391.7" stroke="#F7941E" stroke-miterlimit="10"/>
</g>
<g id="Group_36">
<path id="Vector_76" d="M805.6 502.5L807.9 489.5" stroke="#F7941E" stroke-miterlimit="10"/>
<path id="Vector_77" d="M823.1 403.6L825.4 390.6" stroke="#F7941E" stroke-miterlimit="10"/>
</g>
<g id="Group_37">
<path id="Vector_78" d="M810.5 503.1L811.7 490" stroke="#F7941E" stroke-miterlimit="10"/>
<path id="Vector_79" d="M819.3 403.1L820.4 390" stroke="#F7941E" stroke-miterlimit="10"/>
</g>
</g>
</g>
</g>
<defs>
<filter id="filter0_ddddd" x="0" y="0" width="1408" height="988" filterUnits="userSpaceOnUse" color-interpolation-filters="sRGB">
<feFlood flood-opacity="0" result="BackgroundImageFix"/>
<feColorMatrix in="SourceAlpha" type="matrix" values="0 0 0 0 0 0 0 0 0 0 0 0 0 0 0 0 0 0 127 0"/>
<feOffset dy="4"/>
<feGaussianBlur stdDeviation="2"/>
<feColorMatrix type="matrix" values="0 0 0 0 0 0 0 0 0 0 0 0 0 0 0 0 0 0 0.25 0"/>
<feBlend mode="normal" in2="BackgroundImageFix" result="effect1_dropShadow"/>
<feColorMatrix in="SourceAlpha" type="matrix" values="0 0 0 0 0 0 0 0 0 0 0 0 0 0 0 0 0 0 127 0"/>
<feOffset dy="4"/>
<feGaussianBlur stdDeviation="2"/>
<feColorMatrix type="matrix" values="0 0 0 0 0 0 0 0 0 0 0 0 0 0 0 0 0 0 0.25 0"/>
<feBlend mode="normal" in2="effect1_dropShadow" result="effect2_dropShadow"/>
<feColorMatrix in="SourceAlpha" type="matrix" values="0 0 0 0 0 0 0 0 0 0 0 0 0 0 0 0 0 0 127 0"/>
<feOffset dy="4"/>
<feGaussianBlur stdDeviation="2"/>
<feColorMatrix type="matrix" values="0 0 0 0 0 0 0 0 0 0 0 0 0 0 0 0 0 0 0.25 0"/>
<feBlend mode="normal" in2="effect2_dropShadow" result="effect3_dropShadow"/>
<feColorMatrix in="SourceAlpha" type="matrix" values="0 0 0 0 0 0 0 0 0 0 0 0 0 0 0 0 0 0 127 0"/>
<feOffset dy="4"/>
<feGaussianBlur stdDeviation="2"/>
<feColorMatrix type="matrix" values="0 0 0 0 0 0 0 0 0 0 0 0 0 0 0 0 0 0 0.25 0"/>
<feBlend mode="normal" in2="effect3_dropShadow" result="effect4_dropShadow"/>
<feColorMatrix in="SourceAlpha" type="matrix" values="0 0 0 0 0 0 0 0 0 0 0 0 0 0 0 0 0 0 127 0"/>
<feOffset dy="4"/>
<feGaussianBlur stdDeviation="2"/>
<feColorMatrix type="matrix" values="0 0 0 0 0 0 0 0 0 0 0 0 0 0 0 0 0 0 0.25 0"/>
<feBlend mode="normal" in2="effect4_dropShadow" result="effect5_dropShadow"/>
<feBlend mode="normal" in="SourceGraphic" in2="effect5_dropShadow" result="shape"/>
</filter>
<radialGradient id="paint0_radial" cx="0" cy="0" r="1" gradientUnits="userSpaceOnUse" gradientTransform="translate(704 490) scale(604.194)">
<stop stop-color="#2E3192"/>
<stop offset="1"/>
</radialGradient>
</defs>
</svg>
